PathFileType	4	(X/Y/Z)	/Users/itak/Documents/Research/Walk-IL/dataset/trc/00339_00011.trc
DataRate	CameraRate	NumFrames	NumMarkers	Units	OrigDataRate	OrigDataStartFrame	OrigNumFrames
100.000000	100.000000	4	53	mm	100.000000	86	695
Frame#	Time	RPSI			LPSI			L3			STRN			T10			C7			CLAV			RBAK			LBAK			LSHO			LUPA			LAEL			LAOL			LWTS			LWPS			LFRA			LIFD			LHPS			LHTS			RSHO			RUPA			RAEL			RAOL			RWTS			RWPS			RFRA			RIFD			RHTS			RHPS			RBHD			LFHD			RFHD			LBHD			LHIP			RHIP			RASI			LASI			LKNE			LTHI			LANK			LTIP			LTOE			LMT1			LMT5			LHEE			RKNE			RTHI			RANK			RTIP			RTOE			RMT5			RHEE			RMT1			
		X1	Y1	Z1	X2	Y2	Z2	X3	Y3	Z3	X4	Y4	Z4	X5	Y5	Z5	X6	Y6	Z6	X7	Y7	Z7	X8	Y8	Z8	X9	Y9	Z9	X10	Y10	Z10	X11	Y11	Z11	X12	Y12	Z12	X13	Y13	Z13	X14	Y14	Z14	X15	Y15	Z15	X16	Y16	Z16	X17	Y17	Z17	X18	Y18	Z18	X19	Y19	Z19	X20	Y20	Z20	X21	Y21	Z21	X22	Y22	Z22	X23	Y23	Z23	X24	Y24	Z24	X25	Y25	Z25	X26	Y26	Z26	X27	Y27	Z27	X28	Y28	Z28	X29	Y29	Z29	X30	Y30	Z30	X31	Y31	Z31	X32	Y32	Z32	X33	Y33	Z33	X34	Y34	Z34	X35	Y35	Z35	X36	Y36	Z36	X37	Y37	Z37	X38	Y38	Z38	X39	Y39	Z39	X40	Y40	Z40	X41	Y41	Z41	X42	Y42	Z42	X43	Y43	Z43	X44	Y44	Z44	X45	Y45	Z45	X46	Y46	Z46	X47	Y47	Z47	X48	Y48	Z48	X49	Y49	Z49	X50	Y50	Z50	X51	Y51	Z51	X52	Y52	Z52	X53	Y53	Z53	

87	0.86	10.09698390960693	981.836669921875	1215.181030273438	5.651811599731445	982.9030151367188	1085.834228515625	6.983052253723145	1032.312866210938	1154.525756835938	223.0594482421875	1217.569702148438	1128.635498046875	-13.12865924835205	1151.281982421875	1141.024047851562	22.42978668212891	1399.607299804688	1118.937744140625	178.7777099609375	1342.524169921875	1122.319091796875	-21.78307342529297	1262.617553710938	1191.4912109375	10.82730197906494	1359.764404296875	1018.252807617188	95.35671997070312	1375.6005859375	959.503662109375	80.32112121582031	1252.661865234375	895.4381103515625	106.5044937133789	1048.611572265625	892.4227294921875	39.72883987426758	1036.437255859375	944.9969482421875	204.309814453125	810.40234375	955.6759643554688	170.5724182128906	796.1804809570312	897.0708618164062	125.4624099731445	944.4175415039062	891.39697265625	209.7325134277344	650.652587890625	970.3593139648438	167.9611663818359	725.4430541992188	906.6243286132812	219.2865600585938	730.9349975585938	944.1987915039062	84.86499786376953	1390.482177734375	1280.998168945312	76.55250549316406	1326.262573242188	1346.214599609375	97.45512390136719	1057.55859375	1381.855590820312	46.16595458984375	1049.329833984375	1302.587036132812	201.8818206787109	830.0656127929688	1320.957885742188	178.2356262207031	815.2264404296875	1392.1396484375	125.8259811401367	991.3069458007812	1387.281494140625	215.1410980224609	657.497314453125	1324.004516601562	232.7411041259766	728.6507568359375	1330.206298828125	191.6212615966797	729.8999633789062	1386.121704101562	62.56100845336914	1604.093139648438	1193.127685546875	236.5583038330078	1618.364379882812	1079.405029296875	223.9005126953125	1620.440673828125	1179.724975585938	53.81955337524414	1595.976440429688	1049.243774414062	83.28596496582031	921.1007080078125	978.3999633789062	94.33009338378906	919.9862060546875	1317.353393554688	195.3135681152344	945.5269165039062	1274.468872070312	208.6731262207031	941.4345092773438	1033.107055664062	95.78630828857422	459.2427062988281	995.6596069335938	106.8432312011719	599.1671142578125	984.78662109375	-15.5836009979248	50.43050003051758	1010.783935546875	38.64505767822266	248.4972076416016	991.9708251953125	185.4343566894531	40.91471481323242	1078.643798828125	124.7844772338867	42.81687927246094	1128.276611328125	109.307373046875	44.95834350585938	1003.19482421875	-55.85298538208008	47.42132186889648	1075.356079101562	78.39022827148438	455.6158752441406	1278.126708984375	141.8363494873047	710.0508422851562	1312.577514648438	-9.690142631530762	48.28987884521484	1230.992309570312	74.53164672851562	337.5909423828125	1261.84814453125	181.2561492919922	42.90729141235352	1168.394653320312	90.49916076660156	35.12697219848633	1244.629150390625	-61.29172515869141	54.53556442260742	1185.2158203125	112.8547897338867	28.31289100646973	1117.190185546875	
88	0.87	10.77922916412354	981.8720703125	1215.349853515625	6.398135662078857	982.8060913085938	1085.930297851562	7.729210376739502	1032.281005859375	1154.797241210938	223.8994140625	1217.349365234375	1128.815063476562	-12.25699138641357	1151.220703125	1141.285034179688	23.44846153259277	1399.647705078125	1119.279663085938	179.7517547607422	1342.367919921875	1122.478149414062	-20.85404968261719	1262.646240234375	1191.901000976562	11.71359157562256	1359.754760742188	1018.552734375	96.16895294189453	1375.5205078125	959.7968139648438	81.04997253417969	1252.575805664062	895.7498168945312	107.2001953125	1048.567993164062	892.6588134765625	40.41629791259766	1036.4150390625	945.116455078125	205.2397766113281	810.4839477539062	956.0003051757812	171.4966735839844	796.2252197265625	897.4069213867188	126.2278137207031	944.3470458984375	891.6174926757812	210.9729919433594	650.8006591796875	970.7694702148438	169.0606994628906	725.562255859375	906.994873046875	220.390869140625	731.1643676757812	944.57568359375	86.03559875488281	1390.4130859375	1281.257446289062	77.77923583984375	1326.20458984375	1346.498168945312	98.58735656738281	1057.494750976562	1382.100708007812	47.03234100341797	1049.463256835938	1302.967651367188	202.6270446777344	829.9103393554688	1320.927978515625	179.1114959716797	815.0131225585938	1392.169677734375	126.8812026977539	991.1830444335938	1387.39794921875	215.6399230957031	657.3238525390625	1323.962280273438	233.3372192382812	728.38525390625	1330.076416015625	192.3812713623047	729.7677001953125	1386.1025390625	63.66861724853516	1604.103393554688	1193.300048828125	237.5445404052734	1618.205444335938	1079.33056640625	225.0399169921875	1620.333862304688	1179.69482421875	54.75799560546875	1595.950439453125	1049.436767578125	83.61712646484375	921.187744140625	978.441650390625	94.57508087158203	919.9708251953125	1317.607421875	195.9816131591797	945.27099609375	1274.633178710938	209.1721496582031	941.3242797851562	1033.259765625	97.32962799072266	458.9703674316406	995.9839477539062	107.93408203125	599.02392578125	984.9182739257812	-15.68442440032959	50.31438446044922	1010.663146972656	39.39442443847656	248.4621276855469	992.1869506835938	185.4039916992188	41.1872673034668	1078.644775390625	124.7772369384766	42.87033081054688	1128.29931640625	109.2623596191406	45.05302047729492	1003.1142578125	-56.05646133422852	47.41458892822266	1075.2265625	78.55665588378906	455.5396423339844	1278.310913085938	142.6956024169922	709.5862426757812	1312.404418945312	-9.799002647399902	48.18431854248047	1230.990234375	74.62901306152344	337.5028991699219	1261.982666015625	181.1828918457031	43.01852035522461	1168.455322265625	90.47493743896484	35.08405685424805	1244.678833007812	-61.32816696166992	54.47433090209961	1185.203002929688	112.8123321533203	28.32479858398438	1117.1728515625	
89	0.88	11.41261577606201	981.930908203125	1215.51123046875	7.021953105926514	982.7353515625	1086.009155273438	8.43293571472168	1032.282470703125	1155.079956054688	224.7653045654297	1217.14306640625	1128.95458984375	-11.38606643676758	1151.17626953125	1141.601318359375	24.50246047973633	1399.699829101562	1119.6748046875	180.7478179931641	1342.206298828125	1122.645629882812	-19.86127090454102	1262.696655273438	1192.34326171875	12.59566402435303	1359.7802734375	1018.89306640625	96.96477508544922	1375.451538085938	960.098876953125	81.72544097900391	1252.5166015625	896.069091796875	107.8478546142578	1048.550537109375	892.8648071289062	41.06049346923828	1036.402465820312	945.2417602539062	206.1347351074219	810.5711059570312	956.3049926757812	172.4008636474609	796.2980346679688	897.7081298828125	126.9503021240234	944.298095703125	891.8021240234375	212.1990203857422	650.9641723632812	971.164794921875	170.1627502441406	725.7003784179688	907.3045654296875	221.5030975341797	731.374755859375	944.8724365234375	87.28691864013672	1390.347900390625	1281.543701171875	79.10783386230469	1326.146362304688	1346.787841796875	99.84561920166016	1057.4365234375	1382.325439453125	47.98725128173828	1049.581787109375	1303.372802734375	203.3849182128906	829.7012939453125	1320.870239257812	180.05029296875	814.8082275390625	1392.195068359375	128.0431060791016	991.0567626953125	1387.505737304688	216.0459289550781	657.09716796875	1323.939331054688	233.9120330810547	728.0696411132812	1329.927978515625	193.1751098632812	729.6054077148438	1386.106811523438	64.83038330078125	1604.138671875	1193.471923828125	238.5391387939453	1618.043090820312	1079.212768554688	226.2179718017578	1620.2685546875	1179.626953125	55.69574737548828	1595.914184570312	1049.636962890625	83.9266357421875	921.2803344726562	978.454345703125	94.732177734375	919.998291015625	1317.876342773438	196.6892852783203	945.0269165039062	1274.769653320312	209.5908050537109	941.2186279296875	1033.359252929688	99.31650543212891	458.6164245605469	996.3992309570312	109.3202209472656	598.8713989257812	985.0571899414062	-15.80181312561035	50.19821929931641	1010.515075683594	40.39855194091797	248.4116363525391	992.4305419921875	185.3634948730469	41.48939895629883	1078.627685546875	124.7632827758789	42.95301818847656	1128.339233398438	109.2016754150391	45.16437911987305	1003.013305664062	-56.25146102905273	47.40235900878906	1075.072265625	78.71435546875	455.4606323242188	1278.518798828125	143.9127502441406	708.8767700195312	1312.03857421875	-9.90611743927002	48.08200836181641	1231.016723632812	74.75331878662109	337.4064331054688	1262.150512695312	181.0863952636719	43.15929794311523	1168.537353515625	90.44819641113281	35.02861785888672	1244.745727539062	-61.36526870727539	54.39138031005859	1185.220825195312	112.7486038208008	28.34326934814453	1117.151977539062	
90	0.89	11.98768520355225	982.0130004882812	1215.663330078125	7.502278804779053	982.6995239257812	1086.068237304688	9.07838249206543	1032.330932617188	1155.366088867188	225.6415710449219	1216.942138671875	1129.057739257812	-10.53263568878174	1151.16943359375	1141.996704101562	25.59899711608887	1399.76171875	1120.127807617188	181.7689666748047	1342.035400390625	1122.820434570312	-18.79071044921875	1262.774291992188	1192.82763671875	13.46623134613037	1359.847412109375	1019.290954589844	97.74169921875	1375.396362304688	960.4174194335938	82.34000396728516	1252.492919921875	896.3966674804688	108.4373245239258	1048.564819335938	893.0374145507812	41.65317916870117	1036.398559570312	945.376953125	206.990478515625	810.6807861328125	956.5723876953125	173.2799682617188	796.4006958007812	897.967529296875	127.6242141723633	944.2794189453125	891.9541625976562	213.398193359375	651.1514892578125	971.5436401367188	171.2475128173828	725.844970703125	907.5607299804688	222.5980834960938	731.5615234375	945.1033325195312	88.6405029296875	1390.296997070312	1281.862182617188	80.56120300292969	1326.087280273438	1347.091918945312	101.2458877563477	1057.387084960938	1382.52099609375	49.05865859985352	1049.66650390625	1303.793090820312	204.1639556884766	829.4221801757812	1320.773193359375	181.0653991699219	814.6127319335938	1392.2080078125	129.3359069824219	990.9371337890625	1387.607788085938	216.3592834472656	656.7938842773438	1323.928100585938	234.4769439697266	727.7119750976562	1329.748657226562	194.0077667236328	729.4052734375	1386.132934570312	66.05879211425781	1604.203002929688	1193.649658203125	239.5449371337891	1617.87451171875	1079.039428710938	227.4423370361328	1620.24755859375	1179.503295898438	56.63812255859375	1595.868408203125	1049.842895507812	84.19864654541016	921.3824462890625	978.42822265625	94.88767242431641	920.0394897460938	1318.1337890625	197.4158020019531	944.8078002929688	1274.8583984375	209.9118347167969	941.1213989257812	1033.3955078125	101.8208541870117	458.1808776855469	996.919921875	111.0492401123047	598.7002563476562	985.2034301757812	-15.92971611022949	50.10815048217773	1010.350402832031	41.70250701904297	248.3446960449219	992.7047729492188	185.318115234375	41.80879211425781	1078.584228515625	124.7389984130859	43.07232284545898	1128.399291992188	109.1270294189453	45.29012298583984	1002.896484375	-56.40703964233398	47.41838455200195	1074.899169921875	78.85986328125	455.3784484863281	1278.759155273438	145.3822021484375	707.9998779296875	1311.541259765625	-10.00205993652344	47.99239349365234	1231.08837890625	74.90293121337891	337.3128356933594	1262.354370117188	180.9706420898438	43.33079528808594	1168.641357421875	90.41943359375	34.95900726318359	1244.831787109375	-61.40366363525391	54.29110336303711	1185.271606445312	112.6597290039062	28.36981582641602	1117.12353515625	
